<svg id="Layer_1" data-name="Layer 1" xmlns="http://www.w3.org/2000/svg" viewBox="0 0 1196.72 1196.72"><defs><style>.cls-1{fill:none;}.cls-2{fill:#0d296b;opacity:0.2;}</style></defs><path class="cls-1" d="M921.36,289.38,647,312H534L276.29,289.82c-21.76-1.75-41.55,14.53-43.15,36.47-1.78,21.77,13,40.93,34.78,42.68L480,397.83V632L383.46,997.4c-8.81,22.57,4.83,48,27.16,56.7,22.54,8.79,47.69-1.59,56.48-24.16L572.21,684H607.4l114.26,338.91c5.85,23.51,29.63,36.31,52.87,30.51a43.38,43.38,0,0,0,31.5-52.84L694.5,628.28l-.1-230.45,230.21-29.09h0a39.71,39.71,0,0,0-3.24-79.36Z"/><path class="cls-1" d="M589.29,273.68A77.42,77.42,0,1,0,512,196.12C512,239,546.73,273.68,589.29,273.68Z"/><path class="cls-2" d="M598.36,0C267.89,0,0,267.89,0,598.36s267.89,598.36,598.36,598.36,598.36-267.89,598.36-598.36S928.82,0,598.36,0Zm-9.07,118.84a77.42,77.42,0,1,1,0,154.84C546.73,273.68,512,239,512,196.12A77.4,77.4,0,0,1,589.29,118.84ZM924.6,368.74h0L694.4,397.83l.1,230.45L806,1000.58a43.38,43.38,0,0,1-31.5,52.84c-23.24,5.8-47-7-52.87-30.51L607.4,684H572.21L467.1,1029.94c-8.79,22.57-33.94,33-56.48,24.16-22.33-8.71-36-34.13-27.16-56.7L480,632V397.83L267.92,369c-21.77-1.75-36.56-20.91-34.78-42.68,1.6-21.94,21.39-38.22,43.15-36.47L534,312H647l274.39-22.62a39.71,39.71,0,0,1,3.24,79.36Z"/></svg>